<svg width="1200" height="800" viewBox="0 0 1200 800" xmlns="http://www.w3.org/2000/svg">
  <defs>
    <linearGradient id="tm-bg" x1="0" y1="0" x2="1" y2="1">
      <stop offset="0%" stop-color="#050C1F"/>
      <stop offset="100%" stop-color="#131A2F"/>
    </linearGradient>
    <linearGradient id="tm-card" x1="0" y1="0" x2="1" y2="1">
      <stop offset="0%" stop-color="#2563EB"/>
      <stop offset="100%" stop-color="#8B5CF6"/>
    </linearGradient>
    <linearGradient id="tm-accent" x1="0" y1="0" x2="1" y2="1">
      <stop offset="0%" stop-color="#22D3EE"/>
      <stop offset="100%" stop-color="#0EA5E9"/>
    </linearGradient>
    <linearGradient id="tm-chart" x1="0" y1="0" x2="1" y2="1">
      <stop offset="0%" stop-color="#F472B6"/>
      <stop offset="100%" stop-color="#FB7185"/>
    </linearGradient>
    <filter id="tm-shadow" x="-20%" y="-20%" width="140%" height="140%">
      <feDropShadow dx="0" dy="20" stdDeviation="30" flood-color="#000000" flood-opacity="0.45" />
    </filter>
  </defs>
  <rect width="1200" height="800" rx="48" fill="url(#tm-bg)"/>
  <g filter="url(#tm-shadow)">
    <rect x="140" y="130" width="920" height="540" rx="40" fill="#030712" opacity="0.85" stroke="#1E3A8A"/>
  </g>
  <rect x="200" y="190" width="360" height="420" rx="32" fill="#0B1224" stroke="#1D4ED8" stroke-width="2"/>
  <rect x="600" y="220" width="360" height="360" rx="38" fill="#0B1224" stroke="#8B5CF6" stroke-width="2"/>
  <rect x="230" y="230" width="300" height="70" rx="16" fill="url(#tm-card)" opacity="0.9"/>
  <rect x="230" y="320" width="300" height="48" rx="12" fill="#1E293B"/>
  <rect x="230" y="380" width="300" height="48" rx="12" fill="#1E293B" opacity="0.9"/>
  <rect x="230" y="440" width="300" height="48" rx="12" fill="#1E293B" opacity="0.8"/>
  <rect x="230" y="500" width="140" height="80" rx="16" fill="url(#tm-accent)" opacity="0.8"/>
  <rect x="390" y="500" width="140" height="80" rx="16" fill="#0F172A" stroke="#22D3EE" opacity="0.7"/>
  <circle cx="780" cy="280" r="70" fill="url(#tm-card)" opacity="0.85"/>
  <path d="M780 210 A70 70 0 0 1 840 280" fill="none" stroke="url(#tm-accent)" stroke-width="18" stroke-linecap="round"/>
  <path d="M780 210 A70 70 0 0 0 720 280" fill="none" stroke="#FDE047" stroke-width="18" stroke-linecap="round"/>
  <rect x="640" y="360" width="280" height="60" rx="14" fill="#111827"/>
  <rect x="640" y="440" width="280" height="40" rx="12" fill="url(#tm-accent)" opacity="0.4"/>
  <rect x="640" y="500" width="280" height="40" rx="12" fill="url(#tm-chart)" opacity="0.5"/>
  <text x="215" y="170" fill="#E0F2FE" font-family="Arial, Helvetica, sans-serif" font-size="34" font-weight="600">
    Tech Maintenance · Mobile
  </text>
  <text x="240" y="270" fill="#F8FAFC" font-family="Arial, Helvetica, sans-serif" font-size="18" opacity="0.85">
    SLA Snapshot
  </text>
  <text x="650" y="360" fill="#CBD5F5" font-family="Arial, Helvetica, sans-serif" font-size="18" opacity="0.7">
    Work Orders – cached list
  </text>
</svg>

