<svg width="1200" height="800" viewBox="0 0 1200 800" xmlns="http://www.w3.org/2000/svg">
  <defs>
    <linearGradient id="bg" x1="0" y1="0" x2="1" y2="1">
      <stop offset="0%" stop-color="#0f172a"/>
      <stop offset="100%" stop-color="#1e1b4b"/>
    </linearGradient>
    <linearGradient id="card" x1="0" y1="0" x2="1" y2="1">
      <stop offset="0%" stop-color="#4c1d95"/>
      <stop offset="100%" stop-color="#db2777"/>
    </linearGradient>
    <linearGradient id="screen" x1="0" y1="0" x2="1" y2="1">
      <stop offset="0%" stop-color="#111827"/>
      <stop offset="100%" stop-color="#1f2937"/>
    </linearGradient>
    <filter id="shadow" x="-20%" y="-20%" width="140%" height="140%">
      <feDropShadow dx="0" dy="20" stdDeviation="30" flood-color="#0f172a" flood-opacity="0.6"/>
    </filter>
  </defs>
  <rect width="1200" height="800" rx="48" fill="url(#bg)"/>
  <g filter="url(#shadow)">
    <rect x="160" y="120" width="880" height="560" rx="40" fill="#020617" opacity="0.8" stroke="#312e81"/>
  </g>
  <rect x="220" y="180" width="320" height="440" rx="32" fill="url(#screen)" stroke="#4c1d95" stroke-width="3"/>
  <rect x="660" y="220" width="280" height="360" rx="40" fill="url(#screen)" stroke="#db2777" stroke-width="3"/>
  <rect x="250" y="230" width="260" height="70" rx="12" fill="#1d4ed8" opacity="0.85"/>
  <rect x="250" y="320" width="260" height="40" rx="10" fill="#22d3ee" opacity="0.4"/>
  <rect x="250" y="380" width="260" height="40" rx="10" fill="#f472b6" opacity="0.4"/>
  <rect x="250" y="440" width="260" height="40" rx="10" fill="#34d399" opacity="0.4"/>
  <rect x="250" y="500" width="120" height="80" rx="10" fill="#fbbf24" opacity="0.7"/>
  <rect x="390" y="500" width="120" height="80" rx="10" fill="#60a5fa" opacity="0.7"/>
  <circle cx="800" cy="280" r="50" fill="url(#card)" opacity="0.8"/>
  <rect x="710" y="360" width="220" height="60" rx="12" fill="#312e81" opacity="0.8"/>
  <rect x="710" y="440" width="220" height="40" rx="10" fill="#06b6d4" opacity="0.6"/>
  <rect x="710" y="500" width="220" height="40" rx="10" fill="#f472b6" opacity="0.6"/>
  <text x="240" y="160" fill="#e0f2fe" font-family="Arial, Helvetica, sans-serif" font-size="32" font-weight="600">
    FacilityOps Mobile Suite
  </text>
  <text x="250" y="275" fill="#f8fafc" font-family="Arial, Helvetica, sans-serif" font-size="20" opacity="0.9">
    SLA Compliance
  </text>
  <text x="250" y="365" fill="#f8fafc" font-family="Arial, Helvetica, sans-serif" font-size="20" opacity="0.9">
    Work Orders
  </text>
  <text x="250" y="425" fill="#f8fafc" font-family="Arial, Helvetica, sans-serif" font-size="20" opacity="0.9">
    AI Insights
  </text>
  <text x="250" y="485" fill="#f8fafc" font-family="Arial, Helvetica, sans-serif" font-size="20" opacity="0.9">
    Technicians
  </text>
  <text x="690" y="180" fill="#f8fafc" font-family="Arial, Helvetica, sans-serif" font-size="28" font-weight="600">
    Worker Performance
  </text>
  <text x="690" y="210" fill="#c7d2fe" font-family="Arial, Helvetica, sans-serif" font-size="18" opacity="0.8">
    Live analytics + AI insights
  </text>
</svg>

